<?xml version="1.0" standalone="no"?>
<!DOCTYPE svg PUBLIC "-//W3C//DTD SVG 20010904//EN"
 "http://www.w3.org/TR/2001/REC-SVG-20010904/DTD/svg10.dtd">
<svg version="1.0" xmlns="http://www.w3.org/2000/svg"
 width="1181.000000pt" height="1181.000000pt" viewBox="0 0 1181.000000 1181.000000"
 preserveAspectRatio="xMidYMid meet">
<metadata>
Created by potrace 1.11, written by Peter Selinger 2001-2013
</metadata>
<g transform="translate(0.000000,1181.000000) scale(0.100000,-0.100000)"
fill="#000000" stroke="none">
<path d="M4480 11555 c-62 -18 -311 -86 -335 -91 -11 -2 -75 -19 -142 -37
l-122 -32 115 -200 c63 -110 118 -207 124 -215 5 -8 31 -53 58 -100 40 -70
220 -381 293 -507 11 -18 27 -48 37 -65 11 -18 45 -78 77 -133 32 -55 110
-190 173 -300 63 -110 146 -254 185 -320 38 -66 77 -133 87 -150 21 -37 193
-334 250 -432 23 -40 39 -77 36 -82 -4 -5 -21 -12 -39 -16 -17 -4 -104 -26
-192 -50 -88 -24 -212 -57 -275 -74 -63 -17 -250 -67 -415 -111 -165 -45 -307
-83 -315 -84 -8 -2 -117 -31 -242 -65 -125 -34 -233 -61 -240 -61 -7 0 -45 26
-85 58 -39 31 -124 98 -188 147 -64 50 -122 95 -129 100 -6 6 -31 26 -56 45
-25 19 -50 39 -57 45 -7 5 -18 15 -25 20 -7 6 -43 34 -79 63 -37 28 -71 52
-77 52 -13 0 -495 -129 -500 -134 -2 -2 23 -51 56 -108 33 -56 69 -119 79
-138 11 -19 45 -78 75 -130 30 -52 117 -203 193 -335 76 -132 170 -296 210
-365 40 -69 82 -141 92 -160 11 -19 57 -98 102 -174 44 -76 81 -143 81 -147 0
-15 31 -10 200 37 91 25 172 47 180 49 8 1 58 14 110 28 52 14 140 37 195 52
55 14 139 37 186 51 47 13 94 26 105 28 20 4 243 64 604 161 113 31 213 58
222 60 10 2 62 16 115 30 54 15 105 28 113 30 23 5 541 144 575 154 27 9 136
37 175 46 8 2 42 11 75 20 33 10 125 34 205 55 80 22 197 53 260 70 63 17 122
33 130 35 25 6 207 54 325 87 61 16 117 31 125 33 13 3 1146 305 1425 380 28
7 154 41 280 75 248 66 303 87 380 145 284 214 277 651 -13 849 -106 72 -167
91 -297 90 -101 0 -126 -5 -300 -53 -104 -28 -197 -53 -205 -55 -8 -2 -94 -25
-190 -51 -96 -26 -182 -48 -190 -50 -8 -2 -125 -33 -260 -70 -561 -151 -796
-213 -830 -221 -20 -4 -37 7 -91 58 -36 35 -112 106 -169 158 -56 52 -119 111
-140 130 -20 19 -88 82 -150 140 -62 58 -131 122 -154 144 -51 48 -259 242
-296 276 -69 64 -247 229 -285 265 -23 22 -90 85 -150 140 -59 55 -122 114
-140 130 -104 98 -417 389 -494 461 -36 32 -103 95 -150 139 -235 221 -208
204 -291 180z"/>
<path d="M960 7477 c0 -2 34 -104 76 -228 159 -466 437 -1287 464 -1369 16
-47 99 -292 185 -545 86 -253 174 -512 195 -575 34 -101 329 -971 343 -1010 3
-8 20 -58 37 -110 69 -206 378 -1116 384 -1130 3 -8 52 -154 110 -325 57 -170
132 -391 166 -490 34 -99 63 -187 65 -195 2 -8 48 -144 102 -302 l98 -288 812
0 812 0 76 237 c42 131 84 258 92 283 8 25 32 99 53 165 21 66 110 343 198
615 322 994 364 1126 389 1205 45 144 48 154 54 160 4 3 28 -45 54 -107 27
-62 61 -141 77 -176 15 -35 28 -65 28 -68 0 -2 16 -38 35 -80 19 -41 35 -79
35 -83 0 -4 6 -21 14 -37 11 -22 878 -2039 903 -2101 4 -10 172 -13 793 -13
742 0 788 1 793 17 3 10 46 137 97 283 50 146 119 344 152 440 245 713 365
1060 472 1370 59 168 108 312 110 320 3 8 43 128 91 265 105 303 164 474 200
580 57 167 116 337 185 535 40 113 75 219 80 235 4 17 13 44 20 60 6 17 57
161 111 320 55 160 101 296 104 303 2 7 5 14 5 17 0 3 6 21 14 40 8 19 40 108
70 198 30 89 87 254 126 367 39 113 87 252 106 310 20 58 39 114 44 125 4 11
52 148 105 305 53 157 101 294 105 305 10 24 60 167 60 172 0 2 -348 3 -774 3
l-774 0 -13 -37 c-7 -21 -14 -40 -14 -43 -1 -5 -149 -458 -215 -660 -16 -47
-83 -254 -150 -460 -67 -206 -130 -400 -140 -430 -10 -30 -43 -131 -73 -225
-49 -152 -184 -565 -403 -1240 -42 -126 -79 -241 -84 -255 -5 -14 -38 -115
-73 -225 -36 -110 -126 -387 -200 -615 -75 -228 -148 -455 -164 -504 l-29 -88
-46 108 c-26 60 -77 181 -113 269 -37 88 -73 173 -81 189 -8 16 -14 33 -14 37
0 5 -11 32 -24 61 -14 29 -37 82 -51 118 -15 36 -33 79 -40 95 -31 73 -71 169
-117 280 -27 66 -56 134 -63 150 -8 17 -64 152 -126 300 -61 149 -119 288
-129 310 -9 22 -23 54 -30 70 -279 669 -345 827 -365 869 -7 16 -11 34 -9 40
2 6 24 85 49 176 87 312 166 595 186 665 11 39 27 93 35 120 7 28 32 113 54
191 50 177 88 315 105 379 7 28 32 114 54 193 23 78 41 147 41 152 0 7 -257
10 -729 10 -711 0 -730 0 -736 -19 -3 -11 -8 -28 -10 -38 -2 -10 -31 -112 -65
-228 -33 -115 -62 -217 -64 -225 -4 -15 -10 -35 -76 -265 -17 -60 -33 -117
-35 -125 -2 -8 -72 -251 -155 -540 -84 -289 -153 -532 -155 -540 -2 -8 -54
-188 -115 -400 -61 -212 -113 -392 -115 -400 -2 -8 -28 -100 -59 -205 -76
-262 -307 -1067 -311 -1085 -26 -104 -202 -700 -206 -700 -4 0 -10 12 -13 27
-6 25 -58 188 -201 633 -24 74 -60 187 -80 250 -20 63 -40 126 -45 140 -5 14
-43 133 -85 265 -42 132 -90 281 -107 330 -16 50 -31 97 -33 105 -2 8 -28 92
-58 185 -107 329 -169 520 -171 530 -1 6 -15 48 -30 95 -15 47 -63 198 -107
335 -44 138 -84 261 -89 275 -10 30 -95 295 -315 985 -91 286 -173 541 -181
568 l-16 47 -774 0 c-426 0 -774 -1 -774 -3z"/>
</g>
</svg>
